<mxfile host="app.diagrams.net" modified="2023-08-04T03:30:32.837Z" agent="Mozilla/5.0 (Windows NT 10.0; Win64; x64) AppleWebKit/537.36 (KHTML, like Gecko) Chrome/115.0.0.0 Safari/537.36" etag="2_tUTdK3acWR4Vmer0bJ" version="21.6.6" type="github">
  <diagram name="Page-1" id="HcvGajnn2Z9s-uRJW2JV">
    <mxGraphModel dx="2074" dy="1118" grid="1" gridSize="10" guides="1" tooltips="1" connect="1" arrows="1" fold="1" page="1" pageScale="1" pageWidth="827" pageHeight="1169" math="0" shadow="0">
      <root>
        <mxCell id="0" />
        <mxCell id="1" parent="0" />
        <mxCell id="qf0uzH80hPNXh_6NM23T-1" value="run" style="rounded=0;whiteSpace=wrap;html=1;" vertex="1" parent="1">
          <mxGeometry x="340" y="360" width="120" height="60" as="geometry" />
        </mxCell>
        <mxCell id="qf0uzH80hPNXh_6NM23T-8" style="edgeStyle=orthogonalEdgeStyle;rounded=0;orthogonalLoop=1;jettySize=auto;html=1;entryX=0;entryY=0.5;entryDx=0;entryDy=0;" edge="1" parent="1" source="qf0uzH80hPNXh_6NM23T-3" target="qf0uzH80hPNXh_6NM23T-4">
          <mxGeometry relative="1" as="geometry" />
        </mxCell>
        <mxCell id="qf0uzH80hPNXh_6NM23T-11" style="edgeStyle=orthogonalEdgeStyle;rounded=0;orthogonalLoop=1;jettySize=auto;html=1;entryX=0;entryY=0.5;entryDx=0;entryDy=0;" edge="1" parent="1" source="qf0uzH80hPNXh_6NM23T-3" target="qf0uzH80hPNXh_6NM23T-5">
          <mxGeometry relative="1" as="geometry" />
        </mxCell>
        <mxCell id="qf0uzH80hPNXh_6NM23T-3" value="&lt;div&gt;props.src: ./frontend_src&lt;/div&gt;&lt;div&gt;props.url: https://wwww.cofu.ltd&lt;/div&gt;" style="shape=card;whiteSpace=wrap;html=1;align=left;" vertex="1" parent="1">
          <mxGeometry x="40" y="450" width="170" height="100" as="geometry" />
        </mxCell>
        <mxCell id="qf0uzH80hPNXh_6NM23T-9" style="edgeStyle=orthogonalEdgeStyle;rounded=0;orthogonalLoop=1;jettySize=auto;html=1;" edge="1" parent="1" source="qf0uzH80hPNXh_6NM23T-4" target="qf0uzH80hPNXh_6NM23T-7">
          <mxGeometry relative="1" as="geometry" />
        </mxCell>
        <mxCell id="qf0uzH80hPNXh_6NM23T-4" value="component" style="rounded=0;whiteSpace=wrap;html=1;" vertex="1" parent="1">
          <mxGeometry x="340" y="470" width="120" height="60" as="geometry" />
        </mxCell>
        <mxCell id="qf0uzH80hPNXh_6NM23T-12" style="edgeStyle=orthogonalEdgeStyle;rounded=0;orthogonalLoop=1;jettySize=auto;html=1;entryX=0;entryY=0.5;entryDx=0;entryDy=0;" edge="1" parent="1" source="qf0uzH80hPNXh_6NM23T-5" target="qf0uzH80hPNXh_6NM23T-7">
          <mxGeometry relative="1" as="geometry" />
        </mxCell>
        <mxCell id="qf0uzH80hPNXh_6NM23T-5" value="plugin" style="rounded=0;whiteSpace=wrap;html=1;" vertex="1" parent="1">
          <mxGeometry x="340" y="600" width="120" height="60" as="geometry" />
        </mxCell>
        <mxCell id="qf0uzH80hPNXh_6NM23T-7" value="component: test-component" style="rounded=0;whiteSpace=wrap;html=1;" vertex="1" parent="1">
          <mxGeometry x="580" y="470" width="180" height="60" as="geometry" />
        </mxCell>
      </root>
    </mxGraphModel>
  </diagram>
</mxfile>
